<?xml version="1.0" encoding="UTF-8" standalone="no"?>
<svg
   xmlns:dc="http://purl.org/dc/elements/1.1/"
   xmlns:cc="http://creativecommons.org/ns#"
   xmlns:rdf="http://www.w3.org/1999/02/22-rdf-syntax-ns#"
   xmlns:svg="http://www.w3.org/2000/svg"
   xmlns="http://www.w3.org/2000/svg"
   xmlns:sodipodi="http://sodipodi.sourceforge.net/DTD/sodipodi-0.dtd"
   xmlns:inkscape="http://www.inkscape.org/namespaces/inkscape"
   width="62.828236"
   height="84.015953"
   viewBox="0 0 16.623304 22.229221"
   version="1.1"
   id="svg8"
   inkscape:version="1.0.1 (3bc2e813f5, 2020-09-07)"
   sodipodi:docname="rohbot.svg">
  <defs
     id="defs2">
    <inkscape:perspective
       sodipodi:type="inkscape:persp3d"
       inkscape:vp_x="32.93151 : -62.692477 : 1"
       inkscape:vp_y="-297.39931 : 636.43193 : 0"
       inkscape:vp_z="180.69331 : -6.2028986 : 1"
       inkscape:persp3d-origin="121.53367 : -65.951056 : 1"
       id="perspective2599" />
  </defs>
  <sodipodi:namedview
     id="base"
     pagecolor="#ffffff"
     bordercolor="#666666"
     borderopacity="1.0"
     inkscape:pageopacity="0.0"
     inkscape:pageshadow="2"
     inkscape:zoom="3.959798"
     inkscape:cx="181.16127"
     inkscape:cy="53.372139"
     inkscape:document-units="mm"
     inkscape:current-layer="layer1"
     inkscape:document-rotation="0"
     showgrid="false"
     inkscape:window-width="3840"
     inkscape:window-height="2080"
     inkscape:window-x="-11"
     inkscape:window-y="-11"
     inkscape:window-maximized="1"
     inkscape:snap-page="true"
     fit-margin-top="1"
     fit-margin-left="1"
     fit-margin-right="1"
     fit-margin-bottom="1"
     lock-margins="false"
     units="px"
     inkscape:lockguides="false"
     showguides="false"
     inkscape:guide-bbox="true"
     inkscape:snap-bbox="true"
     inkscape:bbox-paths="true"
     inkscape:bbox-nodes="true"
     inkscape:snap-bbox-edge-midpoints="true"
     inkscape:snap-bbox-midpoints="true"
     inkscape:object-paths="true"
     inkscape:snap-intersection-paths="true"
     inkscape:snap-smooth-nodes="true"
     inkscape:snap-midpoints="true"
     inkscape:snap-object-midpoints="true"
     inkscape:snap-center="true"
     inkscape:snap-text-baseline="true">
    <sodipodi:guide
       position="-26.871616,33.328523"
       orientation="1,0"
       id="guide1144" />
    <sodipodi:guide
       position="34.188248,31.66192"
       orientation="1,0"
       id="guide1154" />
    <sodipodi:guide
       position="34.188248,27.67148"
       orientation="0,-1"
       id="guide1156" />
    <sodipodi:guide
       position="34.728284,29.20629"
       orientation="0,-1"
       id="guide1158" />
    <sodipodi:guide
       position="38.33087,29.997678"
       orientation="1,0"
       id="guide1160" />
    <sodipodi:guide
       position="31.817755,26.139909"
       orientation="1,0"
       id="guide1162" />
    <sodipodi:guide
       position="35.719819,25.300987"
       orientation="1,0"
       id="guide1166" />
    <sodipodi:guide
       position="35.719819,25.300988"
       orientation="0,-1"
       id="guide1168" />
    <sodipodi:guide
       position="33.349326,23.769416"
       orientation="1,0"
       id="guide1174" />
  </sodipodi:namedview>
  <metadata
     id="metadata5">
    <rdf:RDF>
      <cc:Work
         rdf:about="">
        <dc:format>image/svg+xml</dc:format>
        <dc:type
           rdf:resource="http://purl.org/dc/dcmitype/StillImage" />
        <dc:title></dc:title>
      </cc:Work>
    </rdf:RDF>
  </metadata>
  <g
     inkscape:label="Ebene 1"
     inkscape:groupmode="layer"
     id="layer1"
     transform="translate(0.86874393,-44.921757)">
    <g
       id="Icons"
       transform="matrix(0.26458333,0,0,0.26458333,-5.0126663,43.603061)">
      <path
         d="M 72.994,59.6 V 50.488 C 72.9918,48.5622 71.4308,47.0017 69.505,47 H 64.994 V 42 H 53.66 v -3 h 2.945 c 2.9751,-0.0028 5.3862,-2.4139 5.389,-5.389 V 22.389 C 61.9912,19.4139 59.5801,17.0028 56.605,17 h -7.611 v -3.142 c 2.139,-0.5523 3.4253,-2.734 2.873,-4.87298 -0.5523,-2.13899 -2.734,-3.42527 -4.873,-2.87299 -2.139,0.55229 -3.4253,2.734 -2.873,4.87297 0.3638,1.409 1.464,2.5092 2.873,2.873 V 17 h -7.612 c -2.9747,0.0033 -5.3852,2.4143 -5.388,5.389 v 11.222 c 0.0028,2.9747 2.4133,5.3857 5.388,5.389 h 3.278 v 3 H 30.994 v 5.993 h -6.346 c -0.8212,-5e-4 -1.4869,-0.6658 -1.488,-1.487 v -9.113 c 2.9866,-0.554 4.9587,-3.4242 4.4047,-6.4108 -0.1825,-0.9837 -0.6298,-1.8989 -1.2937,-2.6472 l -1.494,1.33 c 1.2834,1.4455 1.152,3.6576 -0.2935,4.941 -1.4454,1.2834 -3.6576,1.152 -4.941,-0.2934 C 18.3726,32.9949 18.3647,31.013 19.524,29.686 l -1.506,-1.317 c -1.9971,2.2888 -1.7607,5.7631 0.5281,7.7602 0.7424,0.6478 1.6451,1.0843 2.6139,1.2638 v 9.113 c 0.0022,1.9253 1.5627,3.4853 3.488,3.487 h 6.346 v 21.032 c -4.6834,0.2787 -8.2541,4.3012 -7.9754,8.9846 0.2669,4.486 3.9815,7.988 8.4754,7.9904 h 33 c 4.6917,-0.0025 8.493,-3.8079 8.4904,-8.4996 C 72.982,75.0065 69.48,71.2919 64.994,71.025 V 49 h 4.511 c 0.8215,0.0011 1.4873,0.6665 1.489,1.488 V 59.6 c -2.9866,0.5539 -4.9587,3.4241 -4.4048,6.4108 0.1824,0.9832 0.6293,1.898 1.2928,2.6462 l 1.494,-1.33 c -1.2831,-1.4457 -1.1513,-3.6579 0.2944,-4.941 1.4457,-1.2831 3.6579,-1.1513 4.941,0.2944 1.1697,1.3179 1.1772,3.2999 0.0176,4.6266 l 1.506,1.316 C 78.1317,66.3339 77.8947,62.8596 75.6056,60.8629 74.8638,60.2158 73.9619,59.7797 72.994,59.6 Z m -27,-49.6 c 0,-1.10457 0.8954,-2 2,-2 1.1046,0 2,0.89543 2,2 0,1.1046 -0.8954,2 -2,2 -1.1046,6e-4 -2.0004,-0.8944 -2.001,-1.999 0,-3e-4 0,-7e-4 0,-10e-4 z m -13,49.07 h 8.175 l 3.258,-6.925 3.061,11.728 4.131,-8.5 2.6,6.17 2.016,-2.061 c 0.2669,-0.2447 0.6104,-0.3893 0.972,-0.409 h 5.784 V 71 h -30 z M 39.382,37 C 37.5116,36.9972 35.9962,35.4814 35.994,33.611 V 22.389 C 35.9962,20.5186 37.5116,19.0028 39.382,19 h 17.223 c 1.8706,0.0028 3.3862,1.5184 3.389,3.389 V 33.611 C 59.9912,35.4816 58.4756,36.9972 56.605,37 Z m 5.278,2 h 7 v 3 h -7 z m -2,5 H 62.994 V 57.07 H 57.21 c -0.8575,0.0176 -1.6794,0.346 -2.313,0.924 l -3.15,-7.466 -3.691,7.6 L 44.968,46.3 39.9,57.07 H 32.994 V 44 Z m 28.334,35.5 c -0.0044,3.588 -2.912,6.4956 -6.5,6.5 h -33 c -3.5899,0 -6.5,-2.9101 -6.5,-6.5 0,-3.5899 2.9101,-6.5 6.5,-6.5 h 33 c 3.588,0.0044 6.4956,2.912 6.5,6.5 z"
         id="path1459" />
      <path
         d="m 57.293,28 c 0,-2.3748 -1.9252,-4.3 -4.3,-4.3 -2.3748,0 -4.3,1.9252 -4.3,4.3 0,2.3748 1.9252,4.3 4.3,4.3 2.3748,0 4.3,-1.9252 4.3,-4.3 z m -4.3,3 c -1.6569,0 -3,-1.3431 -3,-3 0,-1.6569 1.3431,-3 3,-3 1.6569,0 3,1.3431 3,3 0,1.6569 -1.3431,3 -3,3 z"
         id="path1461" />
      <circle
         cx="52.993"
         cy="28"
         r="1.5"
         id="circle1463" />
      <path
         d="m 42.993,23.7 c -2.3748,0 -4.3,1.9252 -4.3,4.3 0,2.3748 1.9252,4.3 4.3,4.3 2.3748,0 4.3,-1.9252 4.3,-4.3 0,-2.3748 -1.9252,-4.3 -4.3,-4.3 z m 0,7.3 c -1.6569,0 -3,-1.3431 -3,-3 0,-1.6569 1.3431,-3 3,-3 1.6569,0 3,1.3431 3,3 0,1.6569 -1.3431,3 -3,3 z"
         id="path1465" />
      <circle
         cx="42.993"
         cy="28"
         r="1.5"
         id="circle1467" />
      <circle
         cx="47.993999"
         cy="79.5"
         r="2"
         id="circle1469" />
      <circle
         cx="33.493999"
         cy="79.5"
         r="2"
         id="circle1471" />
      <circle
         cx="62.493999"
         cy="79.5"
         r="2"
         id="circle1473" />
    </g>
  </g>
</svg>
